# xmcd
#
# Track frame offsets:
#	182
#	15232
#	27835
#	43130
#	56832
#	70325
#	84750
#	98380
#	112872
#	125470
#	138940
#	153512
#	166545
#	181150
#	194457
#	206007
#	219937
#	233222
#	247892
#	262210
#	275600
#	289197
#	302607
#	315137
#	328527
#
# Disc length: 4569 seconds
#
# Revision: 0
# Processed by: cddbd v1.4PL0 Copyright (c) Steve Scherf et al.
# Submitted via: audiograbber 1.81.03
#
DISCID=4a11d719
DTITLE=Various Artist - Good Morning Blues [CD 2] - The Dirty Dozen
DYEAR=1995
DGENRE=Blues
TTITLE0=Bo Carter - Corrine Corrina
TTITLE1=Mississippi John Hurt - Candy Man Blues
TTITLE2=Pine Top Smith - Pine Top's Boogie Woogie
TTITLE3=Hambone Willie Newbern - Roll And Tumble Blues
TTITLE4=Bessie Smith - Nobody Knows When You're Down And Out
TTITLE5=Charley Patton - A Spoonful Blues
TTITLE6=Roosevelt Sykes - 44 Blues
TTITLE7=Kansas Joe McCoy - When The Levee Breaks
TTITLE8=Frankie Jaxon and Tampa Red - I Wonder Where My Easy
TTITLE9=Blind Blake - Diddie Wa Diddie
TTITLE10=Speckled Red - The Dirty Dozen
TTITLE11=Robert Wilkins - That's No Way To Get Along
TTITLE12=Sleepy John Estes - Divin' Duck Blues
TTITLE13=Cannon's Jug Stompers - Walk Right In
TTITLE14=Memphis Jug Band - K.C. Moan
TTITLE15=Victoria Spivey - Dirty T.B. Blues
TTITLE16=Blind Joe Reynolds - Outside Woman Blues
TTITLE17=Mississippi Sheiks - Sitting On Top Of The World
TTITLE18=Garfield Akers - Dough Roller Blues
TTITLE19=Jed Davenport - Beale Street Breakdown
TTITLE20=Willie Brown - Future Blues
TTITLE21=Son House - Walking Blues
TTITLE22=Charley Jordan - Keep It Clean
TTITLE23=Little Brother Montgomery - Vicksburg Blues
TTITLE24=Willie Walker - South Carolina Rag
EXTD=
EXTT0=
EXTT1=
EXTT2=
EXTT3=
EXTT4=
EXTT5=
EXTT6=
EXTT7=
EXTT8=
EXTT9=
EXTT10=
EXTT11=
EXTT12=
EXTT13=
EXTT14=
EXTT15=
EXTT16=
EXTT17=
EXTT18=
EXTT19=
EXTT20=
EXTT21=
EXTT22=
EXTT23=
EXTT24=
PLAYORDER=
